<svg width="240" height="54" viewBox="0 0 240 54" fill="none" xmlns="http://www.w3.org/2000/svg">
<path d="M41.3114 22.6105C41.1957 23.3838 40.6697 24.4346 40.0665 25.348C39.3052 26.5008 38.0971 27.3081 36.7146 27.5884L30.6245 28.8234C29.6457 29.0218 28.758 29.5185 28.0916 30.2409L24.0984 34.5693C23.3479 35.3826 22.8234 35.1887 22.8234 34.0976C22.8143 34.1381 20.8415 39.0715 26.0696 41.9956C28.0784 43.1193 30.9701 42.7155 32.9788 41.592L43.6222 35.6388C47.6027 33.4124 50.4131 29.6459 51.3474 25.2862C51.3842 25.1137 51.4128 24.9406 51.4436 24.7677L41.3114 22.6105Z" fill="url(#paint0_linear_127_352)"/>
<path d="M38.5511 16.6633C40.5599 17.7869 41.3807 19.4596 41.3807 21.7067C41.3807 22.0117 41.356 22.3131 41.3114 22.6099L45.6 24.3963L51.4436 24.7672C52.1919 20.5679 50.7255 16.2455 48.0967 12.8098C46.1185 10.2243 43.5728 7.98056 40.5125 6.2688C38.0265 4.87832 35.443 3.96218 32.8476 3.45947L29.9313 7.1216L29.0101 11.3267L38.5511 16.6633Z" fill="url(#paint1_linear_127_352)"/>
<path d="M4.22435 19.7452C4.22326 19.7485 4.22628 19.7494 4.22742 19.7461C4.45246 19.0917 4.73464 18.3614 5.08692 17.5814C6.92707 13.5065 10.4732 10.7888 14.8358 9.40315C19.1984 8.01752 23.9616 8.50321 27.9376 10.7271L29.0101 11.3269L32.8476 3.45972C20.6421 1.09581 8.1676 8.04929 4.23987 19.6995C4.238 19.7052 4.23117 19.7245 4.22435 19.7452Z" fill="url(#paint2_linear_127_352)"/>
<path d="M32.5623 41.5915C30.5535 42.7152 28.0786 42.7152 26.0698 41.5915C25.7972 41.439 25.5401 41.2676 25.297 41.0819L21.7642 43.4372L18.7192 48.2085C22.0989 50.9359 26.4876 51.8128 30.8734 51.325C34.1739 50.9581 37.4523 49.9443 40.5127 48.2325C42.9987 46.842 45.1094 45.1326 46.8565 43.2062L45.041 38.9285L42.1034 36.2549L32.5623 41.5915Z" fill="url(#paint3_linear_127_352)"/>
<path d="M25.297 41.082C23.7494 39.8999 22.8237 38.0867 22.8237 36.1446V35.951V19.7764C22.8237 18.8617 23.1016 18.7063 23.9194 19.1637C22.6598 18.4591 19.7505 16.041 16.1581 18.0502C14.1493 19.1738 12.4952 21.654 12.4952 23.9009V35.8075C12.4952 40.2602 14.8735 44.905 18.3039 47.8687C18.4396 47.9858 18.58 48.0964 18.7192 48.2087L25.297 41.082Z" fill="url(#paint4_linear_127_352)"/>
<path d="M46.61 11.0489C46.6077 11.0463 46.6054 11.0484 46.6077 11.051C47.0802 11.5671 47.5919 12.1689 48.1132 12.8545C50.8357 16.4358 51.8528 20.9716 50.9103 25.3247C49.9677 29.6775 47.1519 33.4312 43.1758 35.655L42.1033 36.2548L46.8566 43.2062C55.0725 34.1478 55.0938 20.2051 46.643 11.0847C46.6391 11.0804 46.625 11.0649 46.61 11.0489Z" fill="url(#paint5_linear_127_352)"/>
<path d="M12.9118 23.9006C12.9118 21.6535 14.1492 19.5769 16.158 18.4535C16.4307 18.3009 16.7125 18.171 17 18.0598L16.661 13.9182L14.2791 9.17969C10.1511 10.6516 6.81202 13.6934 5.05512 17.6168C3.73296 20.5692 3.00002 23.8269 3 27.2503C3 30.0313 3.47273 32.6568 4.32114 35.0859L9.05297 35.7015L12.9118 34.5738V23.9006Z" fill="url(#paint6_linear_127_352)"/>
<path d="M17 18.0598C18.8306 17.3525 20.9143 17.4824 22.6504 18.4535L22.8235 18.5503L36.7225 26.3244C37.6975 26.8697 37.6089 27.4064 36.5069 27.6298L37.3088 27.4673C38.3638 27.2533 39.3277 26.7304 40.0649 25.9685C41.3322 24.6585 41.7975 23.078 41.7975 21.7065C41.7974 19.4594 40.56 17.3829 38.5513 16.2594L27.9077 10.3062C23.9273 8.0798 19.1552 7.60505 14.7907 9.00125C14.6181 9.05646 14.4491 9.11908 14.2791 9.1797L17 18.0598Z" fill="url(#paint7_linear_127_352)"/>
<path d="M33.1909 50.9581C33.1945 50.9573 33.1938 50.9543 33.1902 50.9551C32.4926 51.0936 31.6988 51.2219 30.8254 51.3164C26.2626 51.8099 21.6993 50.3955 18.2793 47.4281C14.8593 44.4608 12.9119 40.2216 12.9119 35.7739L12.9118 34.5742L4.32123 35.0863C8.31082 46.5086 20.764 53.4978 33.1424 50.9679C33.1484 50.9667 33.1691 50.9626 33.1909 50.9581Z" fill="url(#paint8_linear_127_352)"/>
<path d="M69.3636 34H64.4347V19.4545H69.4631C70.9072 19.4545 72.1477 19.7457 73.1847 20.3281C74.2263 20.9058 75.0265 21.7367 75.5852 22.821C76.1439 23.9053 76.4233 25.2027 76.4233 26.7131C76.4233 28.2282 76.1416 29.5303 75.5781 30.6193C75.0194 31.7083 74.2121 32.544 73.1562 33.1264C72.1051 33.7088 70.8409 34 69.3636 34ZM67.0696 31.7202H69.2358C70.2491 31.7202 71.0942 31.5355 71.7713 31.1662C72.4484 30.7921 72.9574 30.2358 73.2983 29.4972C73.6392 28.7538 73.8097 27.8258 73.8097 26.7131C73.8097 25.6004 73.6392 24.6771 73.2983 23.9432C72.9574 23.2045 72.4531 22.6529 71.7855 22.2884C71.1226 21.919 70.2988 21.7344 69.3139 21.7344H67.0696V31.7202ZM81.9524 34.2202C81.2611 34.2202 80.6385 34.0971 80.0845 33.8509C79.5353 33.5999 79.0997 33.2306 78.7777 32.7429C78.4605 32.2552 78.3018 31.6539 78.3018 30.9389C78.3018 30.3234 78.4155 29.8144 78.6428 29.4119C78.87 29.0095 79.1802 28.6875 79.5732 28.446C79.9661 28.2045 80.4089 28.0223 80.9013 27.8991C81.3984 27.7713 81.9122 27.679 82.4425 27.6222C83.0817 27.5559 83.6001 27.4967 83.9979 27.4446C84.3956 27.3878 84.6844 27.3026 84.8643 27.1889C85.049 27.0705 85.1413 26.8883 85.1413 26.642V26.5994C85.1413 26.0644 84.9827 25.6501 84.6655 25.3565C84.3482 25.063 83.8913 24.9162 83.2947 24.9162C82.665 24.9162 82.1655 25.0535 81.7962 25.3281C81.4316 25.6027 81.1854 25.9271 81.0575 26.3011L78.657 25.9602C78.8464 25.2973 79.1589 24.7434 79.5945 24.2983C80.0301 23.8485 80.5627 23.5123 81.1925 23.2898C81.8222 23.0625 82.5182 22.9489 83.2805 22.9489C83.8061 22.9489 84.3293 23.0104 84.8501 23.1335C85.371 23.2566 85.8468 23.4602 86.2777 23.7443C86.7086 24.0237 87.0542 24.4048 87.3146 24.8878C87.5798 25.3707 87.7124 25.9744 87.7124 26.6989V34H85.2408V32.5014H85.1555C84.9993 32.8045 84.7791 33.0885 84.495 33.3537C84.2157 33.6141 83.8629 33.8248 83.4368 33.9858C83.0154 34.142 82.5206 34.2202 81.9524 34.2202ZM82.62 32.331C83.1361 32.331 83.5836 32.2292 83.9624 32.0256C84.3411 31.8172 84.6323 31.5426 84.8359 31.2017C85.0443 30.8608 85.1484 30.4891 85.1484 30.0866V28.8011C85.0679 28.8674 84.9306 28.929 84.7365 28.9858C84.5471 29.0426 84.334 29.0923 84.0973 29.1349C83.8606 29.1776 83.6262 29.2154 83.3942 29.2486C83.1622 29.2817 82.9609 29.3101 82.7905 29.3338C82.407 29.3859 82.0637 29.4711 81.7607 29.5895C81.4576 29.7079 81.2185 29.8736 81.0433 30.0866C80.8681 30.295 80.7805 30.5649 80.7805 30.8963C80.7805 31.3698 80.9534 31.7273 81.299 31.9688C81.6446 32.2102 82.085 32.331 82.62 32.331ZM90.2976 34V23.0909H92.8686V34H90.2976ZM91.5902 21.5426C91.183 21.5426 90.8326 21.4077 90.5391 21.1378C90.2455 20.8632 90.0987 20.5341 90.0987 20.1506C90.0987 19.7623 90.2455 19.4332 90.5391 19.1634C90.8326 18.8887 91.183 18.7514 91.5902 18.7514C92.0021 18.7514 92.3525 18.8887 92.6413 19.1634C92.9349 19.4332 93.0817 19.7623 93.0817 20.1506C93.0817 20.5341 92.9349 20.8632 92.6413 21.1378C92.3525 21.4077 92.0021 21.5426 91.5902 21.5426ZM98.0835 19.4545V34H95.5124V19.4545H98.0835ZM102.325 38.0909C101.975 38.0909 101.651 38.0625 101.352 38.0057C101.059 37.9536 100.824 37.892 100.649 37.821L101.246 35.8182C101.62 35.9271 101.954 35.9792 102.247 35.9744C102.541 35.9697 102.799 35.8774 103.021 35.6974C103.249 35.5223 103.44 35.2287 103.597 34.8168L103.817 34.2273L99.8608 23.0909H102.588L105.102 31.3295H105.216L107.737 23.0909H110.472L106.104 35.321C105.9 35.8987 105.63 36.3935 105.294 36.8054C104.958 37.2221 104.546 37.5393 104.058 37.7571C103.575 37.9796 102.998 38.0909 102.325 38.0909ZM129.278 19.4545V34H126.935L120.081 24.0923H119.96V34H117.325V19.4545H119.683L126.53 29.3693H126.658V19.4545H129.278ZM136.865 34.2131C135.772 34.2131 134.827 33.9858 134.032 33.5312C133.241 33.072 132.632 32.4233 132.206 31.5852C131.78 30.7424 131.567 29.7505 131.567 28.6094C131.567 27.4872 131.78 26.5024 132.206 25.6548C132.637 24.8026 133.239 24.1397 134.01 23.6662C134.782 23.188 135.689 22.9489 136.73 22.9489C137.403 22.9489 138.037 23.0578 138.634 23.2756C139.235 23.4886 139.766 23.8201 140.225 24.2699C140.689 24.7197 141.053 25.2926 141.319 25.9886C141.584 26.6799 141.716 27.5038 141.716 28.4602V29.2486H132.775V27.5156H139.252C139.247 27.0232 139.141 26.5852 138.932 26.2017C138.724 25.8134 138.433 25.508 138.059 25.2855C137.689 25.063 137.258 24.9517 136.766 24.9517C136.24 24.9517 135.779 25.0795 135.381 25.3352C134.983 25.5862 134.673 25.9176 134.451 26.3295C134.233 26.7367 134.122 27.1842 134.117 27.6719V29.1847C134.117 29.8191 134.233 30.3636 134.465 30.8182C134.697 31.268 135.021 31.6136 135.438 31.8551C135.855 32.0919 136.342 32.2102 136.901 32.2102C137.275 32.2102 137.614 32.1581 137.917 32.054C138.22 31.9451 138.482 31.7865 138.705 31.5781C138.927 31.3698 139.096 31.1117 139.209 30.804L141.61 31.0739C141.458 31.7083 141.169 32.2623 140.743 32.7358C140.322 33.2045 139.782 33.5691 139.124 33.8295C138.466 34.0852 137.713 34.2131 136.865 34.2131ZM146.084 34L143.002 23.0909H145.623L147.54 30.7614H147.64L149.6 23.0909H152.192L154.152 30.7188H154.259L156.148 23.0909H158.776L155.686 34H153.009L150.963 26.6278H150.814L148.769 34H146.084ZM169.193 25.9744L166.849 26.2301C166.783 25.9934 166.667 25.7708 166.501 25.5625C166.34 25.3542 166.123 25.1861 165.848 25.0582C165.573 24.9304 165.237 24.8665 164.839 24.8665C164.304 24.8665 163.855 24.9825 163.49 25.2145C163.13 25.4465 162.953 25.7472 162.957 26.1165C162.953 26.4337 163.069 26.6918 163.305 26.8906C163.547 27.0895 163.945 27.2528 164.499 27.3807L166.359 27.7784C167.392 28.0009 168.159 28.3537 168.661 28.8366C169.167 29.3196 169.423 29.9517 169.428 30.733C169.423 31.4195 169.222 32.0256 168.824 32.5511C168.431 33.072 167.884 33.4792 167.183 33.7727C166.482 34.0663 165.678 34.2131 164.768 34.2131C163.433 34.2131 162.358 33.9337 161.544 33.375C160.73 32.8116 160.244 32.0279 160.088 31.0241L162.595 30.7827C162.709 31.2751 162.95 31.6468 163.32 31.8977C163.689 32.1487 164.17 32.2741 164.761 32.2741C165.372 32.2741 165.862 32.1487 166.232 31.8977C166.606 31.6468 166.793 31.3366 166.793 30.9673C166.793 30.6548 166.672 30.3968 166.43 30.1932C166.194 29.9896 165.824 29.8333 165.322 29.7244L163.462 29.3338C162.415 29.116 161.641 28.7491 161.139 28.233C160.637 27.7121 160.389 27.054 160.393 26.2585C160.389 25.5862 160.571 25.0038 160.94 24.5114C161.314 24.0142 161.833 23.6307 162.496 23.3608C163.163 23.0862 163.933 22.9489 164.804 22.9489C166.082 22.9489 167.089 23.2211 167.822 23.7656C168.561 24.3101 169.018 25.0464 169.193 25.9744ZM178.49 34H175.678L180.798 19.4545H184.051L189.179 34H186.366L182.482 22.4375H182.368L178.49 34ZM178.582 28.2969H186.253V30.4134H178.582V28.2969ZM195.408 34.2131C194.319 34.2131 193.384 33.974 192.602 33.4957C191.826 33.0175 191.227 32.357 190.805 31.5142C190.389 30.6667 190.18 29.6913 190.18 28.5881C190.18 27.4801 190.393 26.5024 190.82 25.6548C191.246 24.8026 191.847 24.1397 192.624 23.6662C193.405 23.188 194.328 22.9489 195.393 22.9489C196.279 22.9489 197.063 23.1122 197.744 23.4389C198.431 23.7609 198.978 24.2178 199.385 24.8097C199.792 25.3968 200.024 26.0833 200.081 26.8693H197.624C197.524 26.3437 197.287 25.9058 196.913 25.5554C196.544 25.2003 196.049 25.0227 195.429 25.0227C194.903 25.0227 194.442 25.1648 194.044 25.4489C193.646 25.7282 193.336 26.1307 193.114 26.6562C192.896 27.1818 192.787 27.8116 192.787 28.5455C192.787 29.2888 192.896 29.928 193.114 30.4631C193.331 30.9934 193.637 31.4029 194.03 31.6918C194.428 31.9759 194.894 32.1179 195.429 32.1179C195.808 32.1179 196.146 32.0469 196.445 31.9048C196.748 31.758 197.001 31.5473 197.205 31.2727C197.408 30.9981 197.548 30.6643 197.624 30.2713H200.081C200.019 31.0431 199.792 31.7273 199.399 32.3239C199.006 32.9157 198.471 33.3797 197.794 33.7159C197.117 34.0473 196.321 34.2131 195.408 34.2131ZM207.64 23.0909V25.0795H201.368V23.0909H207.64ZM202.917 20.4773H205.488V30.7188C205.488 31.0644 205.54 31.3295 205.644 31.5142C205.753 31.6941 205.895 31.8172 206.07 31.8835C206.245 31.9498 206.439 31.983 206.652 31.983C206.813 31.983 206.96 31.9711 207.093 31.9474C207.23 31.9238 207.334 31.9025 207.405 31.8835L207.838 33.8935C207.701 33.9408 207.505 33.9929 207.249 34.0497C206.998 34.1065 206.69 34.1397 206.326 34.1491C205.682 34.1681 205.102 34.071 204.586 33.858C204.069 33.6402 203.66 33.304 203.357 32.8494C203.059 32.3949 202.912 31.8267 202.917 31.1449V20.4773ZM216.743 29.4119V23.0909H219.314V34H216.821V32.0611H216.707C216.461 32.6719 216.056 33.1714 215.493 33.5597C214.934 33.9479 214.245 34.142 213.426 34.142C212.711 34.142 212.079 33.9834 211.53 33.6662C210.985 33.3442 210.559 32.8778 210.251 32.267C209.944 31.6515 209.79 30.9081 209.79 30.0369V23.0909H212.361V29.6392C212.361 30.3305 212.55 30.8797 212.929 31.2869C213.308 31.6941 213.805 31.8977 214.42 31.8977C214.799 31.8977 215.166 31.8054 215.521 31.6207C215.876 31.4361 216.168 31.1615 216.395 30.7969C216.627 30.4276 216.743 29.9659 216.743 29.4119ZM225.097 34.2202C224.406 34.2202 223.783 34.0971 223.229 33.8509C222.68 33.5999 222.244 33.2306 221.922 32.7429C221.605 32.2552 221.446 31.6539 221.446 30.9389C221.446 30.3234 221.56 29.8144 221.787 29.4119C222.015 29.0095 222.325 28.6875 222.718 28.446C223.111 28.2045 223.553 28.0223 224.046 27.8991C224.543 27.7713 225.057 27.679 225.587 27.6222C226.226 27.5559 226.745 27.4967 227.142 27.4446C227.54 27.3878 227.829 27.3026 228.009 27.1889C228.194 27.0705 228.286 26.8883 228.286 26.642V26.5994C228.286 26.0644 228.127 25.6501 227.81 25.3565C227.493 25.063 227.036 24.9162 226.439 24.9162C225.81 24.9162 225.31 25.0535 224.941 25.3281C224.576 25.6027 224.33 25.9271 224.202 26.3011L221.801 25.9602C221.991 25.2973 222.303 24.7434 222.739 24.2983C223.175 23.8485 223.707 23.5123 224.337 23.2898C224.967 23.0625 225.663 22.9489 226.425 22.9489C226.951 22.9489 227.474 23.0104 227.995 23.1335C228.516 23.2566 228.991 23.4602 229.422 23.7443C229.853 24.0237 230.199 24.4048 230.459 24.8878C230.724 25.3707 230.857 25.9744 230.857 26.6989V34H228.385V32.5014H228.3C228.144 32.8045 227.924 33.0885 227.64 33.3537C227.36 33.6141 227.007 33.8248 226.581 33.9858C226.16 34.142 225.665 34.2202 225.097 34.2202ZM225.765 32.331C226.281 32.331 226.728 32.2292 227.107 32.0256C227.486 31.8172 227.777 31.5426 227.98 31.2017C228.189 30.8608 228.293 30.4891 228.293 30.0866V28.8011C228.212 28.8674 228.075 28.929 227.881 28.9858C227.692 29.0426 227.479 29.0923 227.242 29.1349C227.005 29.1776 226.771 29.2154 226.539 29.2486C226.307 29.2817 226.105 29.3101 225.935 29.3338C225.551 29.3859 225.208 29.4711 224.905 29.5895C224.602 29.7079 224.363 29.8736 224.188 30.0866C224.013 30.295 223.925 30.5649 223.925 30.8963C223.925 31.3698 224.098 31.7273 224.444 31.9688C224.789 32.2102 225.23 32.331 225.765 32.331ZM236.013 19.4545V34H233.442V19.4545H236.013Z" fill="white"/>
<defs>
<linearGradient id="paint0_linear_127_352" x1="34.3435" y1="39.0153" x2="38.9892" y2="22.3287" gradientUnits="userSpaceOnUse">
<stop stop-color="#1724C9"/>
<stop offset="1" stop-color="#1C64F2"/>
</linearGradient>
<linearGradient id="paint1_linear_127_352" x1="45.6706" y1="18.7578" x2="33.1304" y2="5.87114" gradientUnits="userSpaceOnUse">
<stop stop-color="#1C64F2"/>
<stop offset="1" stop-color="#0092FF"/>
</linearGradient>
<linearGradient id="paint2_linear_127_352" x1="28.2569" y1="10.6078" x2="8.74602" y2="11.8792" gradientUnits="userSpaceOnUse">
<stop stop-color="#0092FF"/>
<stop offset="1" stop-color="#45B2FF"/>
</linearGradient>
<linearGradient id="paint3_linear_127_352" x1="26.9372" y1="46.4282" x2="44.3882" y2="41.5722" gradientUnits="userSpaceOnUse">
<stop stop-color="#1C64F2"/>
<stop offset="1" stop-color="#0092FF"/>
</linearGradient>
<linearGradient id="paint4_linear_127_352" x1="14.3575" y1="26.7617" x2="26.4048" y2="39.6352" gradientUnits="userSpaceOnUse">
<stop stop-color="#1724C9"/>
<stop offset="1" stop-color="#1C64F2"/>
</linearGradient>
<linearGradient id="paint5_linear_127_352" x1="42.7663" y1="35.7812" x2="51.0275" y2="18.6074" gradientUnits="userSpaceOnUse">
<stop stop-color="#0092FF"/>
<stop offset="1" stop-color="#45B2FF"/>
</linearGradient>
<linearGradient id="paint6_linear_127_352" x1="11.381" y1="16.8343" x2="6.99518" y2="33.8342" gradientUnits="userSpaceOnUse">
<stop stop-color="#1C64F2"/>
<stop offset="1" stop-color="#0092FF"/>
</linearGradient>
<linearGradient id="paint7_linear_127_352" x1="35.0985" y1="16.029" x2="18.184" y2="20.3719" gradientUnits="userSpaceOnUse">
<stop stop-color="#1724C9"/>
<stop offset="1" stop-color="#1C64F2"/>
</linearGradient>
<linearGradient id="paint8_linear_127_352" x1="13.0106" y1="35.3586" x2="23.3759" y2="51.4374" gradientUnits="userSpaceOnUse">
<stop stop-color="#0092FF"/>
<stop offset="1" stop-color="#45B2FF"/>
</linearGradient>
</defs>
</svg>
